<?xml version="1.0" standalone="no"?>
<!DOCTYPE svg PUBLIC "-//W3C//DTD SVG 20010904//EN"
 "http://www.w3.org/TR/2001/REC-SVG-20010904/DTD/svg10.dtd">
<svg version="1.0" xmlns="http://www.w3.org/2000/svg"
 width="64.000000pt" height="64.000000pt" viewBox="0 0 64.000000 64.000000"
 preserveAspectRatio="xMidYMid meet">

<g transform="translate(0.000000,64.000000) scale(0.100000,-0.100000)"
fill="#bf9563" stroke="none">
<path d="M502 587 c-41 -41 -52 -59 -52 -85 0 -37 -3 -38 -38 -14 -138 96
-343 23 -398 -141 -67 -200 133 -400 333 -333 164 55 237 260 141 398 -24 35
-23 38 15 38 26 0 43 10 85 53 29 29 52 56 52 59 0 4 -15 8 -32 10 -29 3 -33
7 -36 36 -2 17 -7 32 -10 32 -4 0 -31 -24 -60 -53z m71 -37 c19 0 18 -3 -13
-35 -40 -41 -80 -48 -80 -13 0 12 15 37 33 56 29 31 32 32 35 13 2 -14 11 -21
25 -21z m-195 -72 c46 -22 52 -36 24 -61 -17 -16 -21 -15 -57 3 -51 26 -100
25 -155 -2 -107 -54 -129 -188 -45 -273 85 -84 219 -62 273 45 27 55 28 104 2
155 -18 36 -19 40 -3 57 25 28 39 22 64 -29 47 -98 24 -210 -59 -285 -51 -46
-99 -61 -178 -56 -75 5 -130 37 -178 106 -24 34 -31 56 -34 106 -5 79 10 127
56 178 78 86 183 107 290 56z m-33 -88 c14 -12 14 -15 -6 -36 -17 -18 -26 -21
-46 -13 -77 29 -138 -67 -81 -128 57 -61 158 2 129 80 -8 20 -5 29 13 46 21
20 24 20 36 6 8 -9 15 -40 18 -68 3 -42 -1 -58 -20 -87 -32 -47 -82 -72 -135
-67 -140 14 -180 193 -60 268 36 23 124 22 152 -1z m-55 -78 c0 -5 -9 -17 -20
-27 -11 -10 -17 -22 -14 -27 3 -5 16 0 28 11 29 27 36 26 36 -4 0 -35 -42 -62
-75 -47 -32 15 -41 47 -21 77 16 24 66 36 66 17z"/>
</g>
</svg>
