<?xml version="1.0" standalone="no"?>
<!DOCTYPE svg PUBLIC "-//W3C//DTD SVG 20010904//EN"
 "http://www.w3.org/TR/2001/REC-SVG-20010904/DTD/svg10.dtd">
<svg version="1.0" xmlns="http://www.w3.org/2000/svg"
 width="64.000000pt" height="64.000000pt" viewBox="0 0 64.000000 64.000000"
 preserveAspectRatio="xMidYMid meet">

<g transform="translate(0.000000,64.000000) scale(0.100000,-0.100000)"
fill="#bf9563" stroke="none">
<path d="M56 510 c-31 -55 -56 -103 -56 -106 0 -10 311 -374 320 -374 8 0 320
364 320 373 0 2 -25 50 -56 106 l-55 101 -209 0 -208 0 -56 -100z m234 75 c0
-3 -22 -37 -49 -75 l-48 -70 -23 63 c-13 34 -25 68 -27 75 -4 9 14 12 71 12
42 0 76 -2 76 -5z m210 1 c0 -9 -44 -122 -50 -129 -6 -7 -100 112 -100 127 0
3 34 6 75 6 41 0 75 -2 75 -4z m-122 -91 c29 -41 52 -77 52 -80 0 -3 -50 -5
-111 -5 -61 0 -109 3 -107 8 9 21 102 152 107 152 4 0 30 -34 59 -75z m-230
-11 c12 -34 22 -64 22 -68 0 -3 -29 -6 -65 -6 -36 0 -65 3 -65 6 0 17 74 144
80 137 4 -4 16 -35 28 -69z m422 -6 c17 -32 30 -60 30 -63 0 -3 -29 -5 -65 -5
-36 0 -65 3 -65 8 0 4 9 32 20 62 12 30 23 62 26 70 6 18 11 11 54 -72z m-339
-228 c27 -74 49 -136 49 -138 0 -2 -52 58 -115 133 -63 75 -115 138 -115 141
0 3 30 4 67 2 l66 -3 48 -135z m146 -10 c-29 -82 -54 -150 -57 -150 -3 0 -27
64 -55 142 -27 78 -51 146 -53 150 -2 4 46 8 107 8 l110 0 -52 -150z m213 146
c0 -3 -53 -67 -117 -143 -64 -76 -113 -129 -109 -118 4 11 23 63 41 115 59
167 45 150 120 150 36 0 65 -2 65 -4z"/>
</g>
</svg>
