<?xml version="1.0" standalone="no"?>
<!DOCTYPE svg PUBLIC "-//W3C//DTD SVG 20010904//EN"
 "http://www.w3.org/TR/2001/REC-SVG-20010904/DTD/svg10.dtd">
<svg version="1.0" xmlns="http://www.w3.org/2000/svg"
 width="64.000000pt" height="64.000000pt" viewBox="0 0 64.000000 64.000000"
 preserveAspectRatio="xMidYMid meet">

<g transform="translate(0.000000,64.000000) scale(0.100000,-0.100000)"
fill="#bf9563" stroke="none">
<path d="M192 452 c-54 -20 -146 -78 -177 -113 -18 -19 -17 -20 6 -45 68 -74
187 -124 292 -124 100 0 242 57 304 122 l28 30 -40 35 c-22 19 -73 51 -113 71
-65 31 -85 36 -160 39 -66 3 -100 -1 -140 -15z m290 -55 c40 -20 84 -46 98
-57 l25 -20 -25 -22 c-14 -11 -58 -37 -98 -56 -98 -47 -183 -54 -279 -23 -63
20 -163 81 -163 99 1 14 91 75 147 98 49 21 71 24 140 21 70 -3 92 -9 155 -40z"/>
<path d="M273 414 c-39 -19 -67 -74 -58 -114 8 -37 48 -77 85 -85 41 -9 95 19
114 60 20 41 20 49 0 90 -15 32 -65 65 -96 65 -7 0 -27 -8 -45 -16z m101 -44
c26 -25 25 -76 -2 -102 -45 -45 -125 -13 -125 51 0 70 75 100 127 51z"/>
<path d="M277 362 c-21 -23 -22 -52 -2 -52 8 0 15 7 15 16 0 9 9 18 20 21 11
3 20 12 20 19 0 20 -34 17 -53 -4z"/>
</g>
</svg>
