<svg xmlns="http://www.w3.org/2000/svg" width="32" height="32" viewBox="0 0 100 100"><rect width="100" height="100" rx="20" fill="#152b40"></rect><path fill="#bf9563" d="M29.43 26.28L29.43 26.28L29.43 27.62Q27.15 27.69 25.98 28.12Q24.81 28.56 24.41 29.73Q24.00 30.91 24.00 33.38L24.00 33.38L24.00 66.62Q24.00 69.03 24.41 70.23Q24.81 71.44 25.98 71.81Q27.15 72.18 29.43 72.18L29.43 72.18L34.32 72.18Q38.54 72.18 40.72 70.97Q42.90 69.77 43.87 67.02Q44.84 64.27 45.31 59.65L45.31 59.65L46.85 59.65Q46.65 61.73 46.65 65.14L46.65 65.14Q46.65 66.42 46.75 68.79Q46.85 71.17 47.12 73.72L47.12 73.72Q43.70 73.58 39.41 73.55Q35.13 73.52 31.78 73.52L31.78 73.52Q29.77 73.52 26.45 73.52Q23.13 73.52 19.38 73.55Q15.63 73.58 12.35 73.72L12.35 73.72L12.35 72.38Q14.62 72.24 15.80 71.84Q16.97 71.44 17.37 70.23Q17.77 69.03 17.77 66.62L17.77 66.62L17.77 33.38Q17.77 30.91 17.37 29.73Q16.97 28.56 15.80 28.12Q14.62 27.69 12.35 27.62L12.35 27.62L12.35 26.28Q13.75 26.35 16.03 26.42Q18.31 26.48 20.92 26.48L20.92 26.48Q23.27 26.48 25.58 26.42Q27.89 26.35 29.43 26.28ZM51.74 27.62L51.74 26.28Q53.15 26.35 55.43 26.42Q57.71 26.48 59.92 26.48L59.92 26.48Q63.07 26.48 65.95 26.42Q68.83 26.35 70.03 26.35L70.03 26.35Q77.07 26.35 80.62 29.30Q84.17 32.25 84.17 36.87L84.17 36.87Q84.17 39.21 83.20 41.46Q82.23 43.70 79.98 45.54Q77.74 47.39 73.99 48.53L73.99 48.53L73.99 48.66Q79.28 49.33 82.26 51.17Q85.24 53.02 86.45 55.49Q87.65 57.97 87.65 60.72L87.65 60.72Q87.65 66.42 83.40 70.07Q79.15 73.72 71.57 73.72L71.57 73.72Q70.10 73.72 67.15 73.62Q64.20 73.52 60.05 73.52L60.05 73.52Q57.71 73.52 55.43 73.55Q53.15 73.58 51.74 73.72L51.74 73.72L51.74 72.38Q54.02 72.24 55.19 71.84Q56.37 71.44 56.77 70.23Q57.17 69.03 57.17 66.62L57.17 66.62L57.17 33.38Q57.17 30.91 56.77 29.73Q56.37 28.56 55.19 28.12Q54.02 27.69 51.74 27.62L51.74 27.62ZM68.36 27.62L68.36 27.62Q65.28 27.62 64.34 28.76Q63.40 29.90 63.40 33.38L63.40 33.38L63.40 66.62Q63.40 70.10 64.37 71.14Q65.34 72.18 68.43 72.18L68.43 72.18Q74.99 72.18 77.97 69.13Q80.95 66.08 80.95 60.45L80.95 60.45Q80.95 55.29 78.17 52.48Q75.39 49.67 69.03 49.67L69.03 49.67L62.13 49.67Q62.13 49.67 62.13 49.10Q62.13 48.53 62.13 48.53L62.13 48.53L67.89 48.53Q71.84 48.53 73.99 47.02Q76.13 45.51 76.93 43.00Q77.74 40.49 77.74 37.61L77.74 37.61Q77.74 32.65 75.56 30.13Q73.38 27.62 68.36 27.62Z"></path></svg>