<svg height="100px" width="100px" version="1.1" id="Layer_1" xmlns="http://www.w3.org/2000/svg" xmlns:xlink="http://www.w3.org/1999/xlink" viewBox="0 0 498.00 498.00" xml:space="preserve" fill="#152b40" stroke="#152b40" stroke-width="0.00498"><g id="SVGRepo_bgCarrier" stroke-width="0"></g><g id="SVGRepo_tracerCarrier" stroke-linecap="round" stroke-linejoin="round" stroke="#152b40" stroke-width="0.9960000000000001"></g><g id="SVGRepo_iconCarrier"> <circle style="fill:#d9d0bf;" cx="228.8" cy="249" r="228.8"></circle> <path style="fill:#bf9563;" d="M228.8,20.2c126.4,0,228.8,102.4,228.8,228.8S355.2,477.8,228.8,477.8"></path> <path style="fill:#fafafa;" d="M284,307.4c14.4,14.4,14.4,36.8,0,50.4l-30.4,30.4c-14.4,14.4-36.8,14.4-50.4,0L56,241.8 c-14.4-14.4-14.4-36.8,0-50.4L86.4,161c14.4-14.4,36.8-14.4,50.4,0L284,307.4z"></path> <path style="fill:#FAFAFA;" d="M228,251.4l56,56c14.4,14.4,14.4,36.8,0,50.4l-30.4,30.4c-14.4,14.4-36.8,14.4-50.4,0L56,241.8"></path> <path style="fill:#f0f0f0;" d="M172,307.4c-14.4,14.4-14.4,36.8,0,50.4l30.4,30.4c14.4,14.4,36.8,14.4,50.4,0l234.4-234.4 c14.4-14.4,14.4-36.8,0-50.4L457.6,73c-14.4-14.4-36.8-14.4-50.4,0L172,307.4z"></path> <path style="fill:#fafafa;" d="M229.6,249.8L172,307.4c-14.4,14.4-14.4,36.8,0,50.4l30.4,30.4c14.4,14.4,36.8,14.4,50.4,0 l234.4-234.4c14.4-14.4,14.4-36.8,0-50.4L457.6,73"></path> <path style="fill:#f1f1f1;" d="M202.4,388.2c14.4,14.4,36.8,14.4,50.4,0l234.4-234.4c14.4-14.4,14.4-36.8,0-50.4"></path> </g></svg>
  