<svg xmlns="http://www.w3.org/2000/svg" width="248" height="262" viewBox="0 0 248 262" version="1.1"><path d="M 48.518 35.971 C 48.188 36.505, 49.174 37.200, 50.709 37.516 C 60.933 39.622, 65.497 42.362, 68.786 48.369 C 70.299 51.133, 70.559 56.239, 71 91.950 L 71.500 132.399 84.767 99.950 L 98.034 67.500 98.017 55.250 C 98.008 48.513, 98.338 43.002, 98.750 43.004 C 100.764 43.014, 106.162 47.297, 107.027 49.570 C 108.322 52.978, 107.762 54.972, 100.723 72 C 97.427 79.975, 93.725 88.975, 92.496 92 C 91.268 95.025, 88.132 102.675, 85.527 109 C 80.862 120.329, 57.231 179.390, 49.064 200.133 C 44.567 211.555, 42.230 214.604, 37.202 215.610 C 34.678 216.114, 34 216.753, 34 218.625 L 34 221 100.500 221 C 157.746 221, 167 220.799, 167 219.558 C 167 218.766, 168.125 208.614, 169.500 197 C 172.484 171.796, 172.521 170.746, 170.425 171.177 C 169.511 171.364, 168.008 174, 166.843 177.458 C 164.216 185.256, 158.018 193.972, 151.553 198.959 C 145.265 203.810, 133.420 209.411, 124.832 211.595 C 117.560 213.443, 79 214.880, 79 213.302 C 79 212.789, 83.443 201.374, 88.872 187.935 C 94.302 174.496, 104.923 148.200, 112.474 129.500 C 145.005 48.936, 143.842 51.497, 149.442 48.036 C 151.254 46.916, 153.191 46, 153.747 46 C 155.922 46, 163.333 54.479, 165.848 59.845 C 168.291 65.054, 168.500 66.525, 168.500 78.500 C 168.500 92.890, 167.553 97.312, 163.002 104.184 C 157.226 112.903, 149.126 116.607, 132 118.361 C 121.285 119.458, 120.478 119.690, 120.180 121.769 C 119.870 123.940, 120.113 124, 129.180 124.012 C 144.596 124.032, 155.148 128.099, 164.646 137.684 C 174.141 147.265, 178.581 160.267, 177.729 175.999 C 177.446 181.225, 176.464 187.525, 175.546 190 C 174.074 193.970, 170.466 218.800, 171.248 219.581 C 172.273 220.607, 185.436 212.576, 190.475 207.851 C 201.015 197.968, 206 186.777, 206 173 C 206 159.114, 201.308 148.323, 190.517 137.391 C 182.998 129.774, 176.759 126.038, 165.500 122.413 C 161.535 121.136, 159.150 119.922, 160 119.611 C 160.825 119.310, 163.750 118.327, 166.500 117.427 C 173.652 115.087, 182.053 109.751, 186.952 104.436 C 198.789 91.595, 200.390 71.340, 190.652 57.644 C 183.793 47.995, 168.127 38.989, 158.239 39.010 C 151.760 39.023, 144.179 42.723, 140.113 47.857 C 136.631 52.254, 133.966 58.419, 111.525 114 C 85.151 179.321, 74.160 206.471, 72.560 210.250 L 70.973 214 62.665 214 L 54.358 214 66.739 182.750 C 80.922 146.951, 100.805 97.774, 110.409 74.738 C 114.023 66.069, 117.268 57.174, 117.620 54.973 C 119.030 46.159, 112.992 38.356, 103 36.076 C 97.190 34.750, 49.330 34.658, 48.518 35.971 M 157.129 202.085 C 154.175 204.840, 148.775 208.626, 145.129 210.498 L 138.500 213.902 150.250 213.951 L 162 214 162.084 211.250 C 162.131 209.738, 162.492 205.912, 162.887 202.750 C 163.282 199.588, 163.357 197.017, 163.053 197.038 C 162.749 197.059, 160.083 199.330, 157.129 202.085" stroke="none" fill="#b99162" fill-rule="evenodd"/><path d="M -0 131.004 L -0 262.008 124.250 261.754 L 248.500 261.500 248.754 130.750 L 249.007 0 124.504 0 L 0 0 -0 131.004 M 0.485 131.500 C 0.485 203.550, 0.604 232.877, 0.750 196.672 C 0.895 160.467, 0.895 101.517, 0.750 65.672 C 0.604 29.827, 0.485 59.450, 0.485 131.500 M 48.518 35.971 C 48.188 36.505, 49.174 37.200, 50.709 37.516 C 60.933 39.622, 65.497 42.362, 68.786 48.369 C 70.299 51.133, 70.559 56.239, 71 91.950 L 71.500 132.399 84.767 99.950 L 98.034 67.500 98.017 55.250 C 98.008 48.513, 98.338 43.002, 98.750 43.004 C 100.764 43.014, 106.162 47.297, 107.027 49.570 C 108.322 52.978, 107.762 54.972, 100.723 72 C 97.427 79.975, 93.725 88.975, 92.496 92 C 91.268 95.025, 88.132 102.675, 85.527 109 C 80.862 120.329, 57.231 179.390, 49.064 200.133 C 44.567 211.555, 42.230 214.604, 37.202 215.610 C 34.678 216.114, 34 216.753, 34 218.625 L 34 221 100.500 221 C 157.746 221, 167 220.799, 167 219.558 C 167 218.766, 168.125 208.614, 169.500 197 C 172.484 171.796, 172.521 170.746, 170.425 171.177 C 169.511 171.364, 168.008 174, 166.843 177.458 C 164.216 185.256, 158.018 193.972, 151.553 198.959 C 145.265 203.810, 133.420 209.411, 124.832 211.595 C 117.560 213.443, 79 214.880, 79 213.302 C 79 212.789, 83.443 201.374, 88.872 187.935 C 94.302 174.496, 104.923 148.200, 112.474 129.500 C 145.005 48.936, 143.842 51.497, 149.442 48.036 C 151.254 46.916, 153.191 46, 153.747 46 C 155.922 46, 163.333 54.479, 165.848 59.845 C 168.291 65.054, 168.500 66.525, 168.500 78.500 C 168.500 92.890, 167.553 97.312, 163.002 104.184 C 157.226 112.903, 149.126 116.607, 132 118.361 C 121.285 119.458, 120.478 119.690, 120.180 121.769 C 119.870 123.940, 120.113 124, 129.180 124.012 C 144.596 124.032, 155.148 128.099, 164.646 137.684 C 174.141 147.265, 178.581 160.267, 177.729 175.999 C 177.446 181.225, 176.464 187.525, 175.546 190 C 174.074 193.970, 170.466 218.800, 171.248 219.581 C 172.273 220.607, 185.436 212.576, 190.475 207.851 C 201.015 197.968, 206 186.777, 206 173 C 206 159.114, 201.308 148.323, 190.517 137.391 C 182.998 129.774, 176.759 126.038, 165.500 122.413 C 161.535 121.136, 159.150 119.922, 160 119.611 C 160.825 119.310, 163.750 118.327, 166.500 117.427 C 173.652 115.087, 182.053 109.751, 186.952 104.436 C 198.789 91.595, 200.390 71.340, 190.652 57.644 C 183.793 47.995, 168.127 38.989, 158.239 39.010 C 151.760 39.023, 144.179 42.723, 140.113 47.857 C 136.631 52.254, 133.966 58.419, 111.525 114 C 85.151 179.321, 74.160 206.471, 72.560 210.250 L 70.973 214 62.665 214 L 54.358 214 66.739 182.750 C 80.922 146.951, 100.805 97.774, 110.409 74.738 C 114.023 66.069, 117.268 57.174, 117.620 54.973 C 119.030 46.159, 112.992 38.356, 103 36.076 C 97.190 34.750, 49.330 34.658, 48.518 35.971 M 157.129 202.085 C 154.175 204.840, 148.775 208.626, 145.129 210.498 L 138.500 213.902 150.250 213.951 L 162 214 162.084 211.250 C 162.131 209.738, 162.492 205.912, 162.887 202.750 C 163.282 199.588, 163.357 197.017, 163.053 197.038 C 162.749 197.059, 160.083 199.330, 157.129 202.085" stroke="none" fill="#152c42" fill-rule="evenodd"/></svg>