<?xml version="1.0" standalone="no"?>
<!DOCTYPE svg PUBLIC "-//W3C//DTD SVG 20010904//EN"
 "http://www.w3.org/TR/2001/REC-SVG-20010904/DTD/svg10.dtd">
<svg version="1.0" xmlns="http://www.w3.org/2000/svg"
 width="248.000000pt" height="262.000000pt" viewBox="0 0 248.000000 262.000000"
 preserveAspectRatio="xMidYMid meet">

<g transform="translate(0.000000,262.000000) scale(0.100000,-0.100000)"
fill="#FFFFFFFF" stroke="none">
<path d="M1677 530 c-4 -35 -7 -75 -6 -89 1 -23 2 -22 11 9 9 33 11 34 24 15
13 -18 14 -18 14 7 0 14 3 47 6 74 6 45 5 47 -8 30 -14 -18 -16 -18 -25 -2 -8
14 -11 4 -16 -44z"/>
<path d="M1381 491 c-10 -6 -10 -10 -1 -16 13 -8 24 -1 19 14 -3 6 -10 7 -18
2z"/>
</g>
</svg>
