<svg version="1.1" id="Layer_1" xmlns="http://www.w3.org/2000/svg" xmlns:xlink="http://www.w3.org/1999/xlink" x="0px" y="0px"
	 width="100%" viewBox="0 0 1140 1232" enable-background="new 0 0 1140 1232" xml:space="preserve">
<path fill="#BF9563" opacity="1.000000" stroke="none" 
	d="
M880.000000,1233.000000 
	C587.000000,1233.000000 294.000000,1233.000000 1.000000,1233.000000 
	C1.000000,1222.927612 1.000000,1212.932495 1.365538,1202.305420 
	C8.838677,1200.110840 15.916672,1198.394897 23.059292,1197.013184 
	C47.015907,1192.378662 64.777473,1179.675659 74.401268,1156.938843 
	C82.580132,1137.615723 90.259918,1118.078247 97.957428,1098.555420 
	C107.748520,1073.722778 117.306946,1048.798462 127.017639,1023.933899 
	C135.987610,1000.966003 145.002396,978.015442 154.041000,955.074402 
	C163.556870,930.922180 173.082108,906.773499 182.681351,882.654358 
	C192.040802,859.137756 201.530289,835.672852 210.905426,812.162476 
	C220.655075,787.712952 230.296539,763.220215 240.059158,738.775879 
	C248.661697,717.236267 257.402954,695.752075 266.013153,674.215515 
	C272.172424,658.809387 278.087097,643.304626 284.345947,627.939575 
	C291.399994,610.622314 298.826569,593.456909 305.896301,576.145935 
	C317.995331,546.519958 329.893524,516.812012 341.971466,487.177368 
	C349.827301,467.902161 357.885437,448.709503 365.792114,429.454895 
	C374.053162,409.337219 382.234100,389.186646 390.463623,369.056000 
	C397.354126,352.200745 404.229980,335.339417 411.177246,318.507568 
	C416.009186,306.800629 420.936432,295.132904 425.847870,283.458893 
	C431.529175,269.954987 437.277222,256.479065 442.928833,242.962769 
	C450.951874,223.774872 459.115143,204.642029 466.843872,185.335693 
	C474.485443,166.247086 484.010590,147.879379 486.258545,126.819794 
	C487.717529,113.151596 485.702667,100.757385 478.633453,89.206062 
	C469.037598,73.526108 453.738983,65.134895 437.563507,58.078835 
	C432.721252,55.966557 427.606659,54.478714 421.999695,52.485397 
	C421.999695,55.351654 421.999664,57.331017 421.999664,59.310379 
	C421.999634,112.474007 422.018188,165.637665 421.938812,218.801163 
	C421.935242,221.182007 421.359253,223.682816 420.503052,225.918304 
	C418.184052,231.972885 415.497955,237.885590 413.086548,243.906250 
	C404.926483,264.279572 396.978271,284.739166 388.657227,305.046204 
	C378.310333,330.297211 367.571716,355.387512 357.190063,380.624481 
	C346.997681,405.401337 337.093201,430.296448 326.964264,455.099579 
	C318.407745,476.052307 309.643219,496.920135 301.094910,517.876160 
	C292.638763,538.606262 284.373108,559.414001 275.958679,580.161194 
	C268.674469,598.121643 261.314178,616.051208 253.956085,633.981567 
	C251.048737,641.066223 248.056274,648.115906 245.102554,655.181519 
	C244.734833,655.061035 244.367126,654.940491 243.999405,654.820007 
	C243.999405,653.022400 243.999390,651.224854 243.999390,649.427246 
	C243.999557,493.936157 244.053162,338.445007 243.912933,182.954041 
	C243.899689,168.256989 242.902969,153.545746 241.943207,138.868530 
	C240.803802,121.444008 236.045288,104.811852 228.483139,89.180687 
	C219.042404,69.666389 205.021454,54.280849 186.324951,42.705147 
	C166.888992,30.671618 145.809830,24.345383 123.566063,21.052538 
	C113.872070,19.617496 104.089760,18.779013 94.000000,17.630022 
	C94.000000,11.942196 94.000000,6.471098 94.000000,1.000000 
	C108.354225,1.000000 122.708458,1.000000 137.751587,1.374400 
	C140.430923,1.832653 142.421356,1.989546 144.411819,1.989831 
	C224.571915,2.001310 304.732300,1.890622 384.891907,2.088145 
	C401.086975,2.128052 417.295105,3.068707 433.468597,4.060653 
	C451.996765,5.197018 469.617340,10.242628 486.758728,17.280098 
	C506.289154,25.298367 522.545471,37.568844 535.549438,54.097534 
	C548.922913,71.095848 555.230835,90.786156 555.846802,112.173157 
	C556.106140,121.181046 554.924133,130.264740 553.952209,139.265915 
	C552.407471,153.572540 547.241455,166.900177 541.945312,180.122299 
	C537.163635,192.059784 531.966003,203.830154 527.001160,215.694885 
	C519.966309,232.506332 512.983276,249.339447 505.966125,266.158356 
	C498.645142,283.705627 491.282776,301.235687 483.988647,318.794128 
	C476.634155,336.497986 469.352051,354.231934 462.018372,371.944458 
	C454.364746,390.429688 446.643768,408.887177 439.033081,427.390045 
	C431.875275,444.791809 424.830902,462.240265 417.721893,479.662109 
	C410.476532,497.418091 403.174866,515.151184 395.968750,532.922974 
	C388.770721,550.674927 381.727325,568.489746 374.493500,586.226990 
	C366.755951,605.199219 358.756897,624.065369 351.091766,643.066467 
	C344.115082,660.361023 337.527527,677.812317 330.597687,695.126099 
	C321.813477,717.072998 312.789673,738.923828 303.993561,760.865967 
	C295.396057,782.312500 286.981628,803.832336 278.437744,825.300476 
	C269.666199,847.340576 260.753357,869.324768 252.052414,891.392578 
	C242.517776,915.574768 233.220139,939.850403 223.698074,964.037659 
	C214.541183,987.297363 205.160339,1010.468933 196.007584,1033.730347 
	C188.745590,1052.186401 181.708588,1070.730957 174.517654,1089.215332 
	C168.395508,1104.952148 162.204651,1120.662231 156.028610,1136.378052 
	C150.686157,1149.972656 145.320282,1163.559204 136.872818,1175.638306 
	C134.111359,1179.586914 131.313202,1183.510010 128.143204,1187.994507 
	C166.716370,1187.994507 204.515747,1188.018677 242.314545,1187.883911 
	C243.506683,1187.879639 245.304871,1186.490967 245.787430,1185.321533 
	C250.678619,1173.468506 255.318985,1161.512451 260.098938,1149.612915 
	C268.037842,1129.849243 276.042175,1110.111938 283.992157,1090.352661 
	C293.197174,1067.474121 302.310272,1044.558228 311.580200,1021.705933 
	C319.956909,1001.055786 328.548370,980.492859 336.939636,959.848572 
	C345.017395,939.975464 352.958618,920.046936 360.962555,900.143921 
	C368.970917,880.229858 376.992676,860.321289 384.990112,840.402832 
	C394.179108,817.516785 403.276672,794.593689 412.546265,771.740356 
	C420.921600,751.091614 429.537018,730.540405 437.932465,709.899780 
	C446.013916,690.031128 453.965179,670.109436 461.944183,650.199219 
	C469.988403,630.126343 477.970978,610.028687 486.026764,589.960510 
	C495.157257,567.215027 504.278778,544.465576 513.516418,521.763550 
	C521.914917,501.123901 530.528931,480.571960 538.927734,459.932434 
	C547.012268,440.065369 554.957642,420.141632 562.936768,400.231812 
	C570.981445,380.158661 578.970886,360.063354 587.023743,339.993500 
	C596.150940,317.246185 605.271851,294.496063 614.488403,271.784912 
	C622.927551,250.989319 631.420776,230.215088 640.017334,209.484161 
	C649.910278,185.626892 659.147827,161.451111 670.188782,138.132721 
	C677.803955,122.049438 687.507507,106.870506 697.187561,91.874702 
	C705.686157,78.709312 716.623108,67.187294 729.417725,58.272804 
	C751.479248,42.901764 775.414856,31.619335 802.606323,27.713820 
	C817.312317,25.601597 831.760132,25.744801 846.138550,28.213297 
	C871.167419,32.510254 894.430603,42.322906 917.239624,53.093300 
	C936.111877,62.004761 954.191772,72.413803 971.081421,84.709938 
	C980.692200,91.706863 990.298523,98.832664 999.083069,106.807777 
	C1008.147095,115.036583 1016.875793,123.830971 1024.545532,133.349426 
	C1034.045288,145.139221 1043.207642,157.392822 1050.918701,170.393356 
	C1068.980835,200.845459 1078.595093,234.323563 1080.665894,269.479950 
	C1081.819946,289.073456 1080.917114,309.007751 1078.653687,328.523163 
	C1076.236450,349.366730 1070.003174,369.504700 1061.664429,388.984741 
	C1050.307251,415.515961 1034.982788,439.485077 1015.617676,460.627045 
	C1004.634277,472.618195 992.069153,483.260925 979.566772,493.735565 
	C962.817871,507.767914 943.993225,518.814575 924.570679,528.714233 
	C914.873901,533.656677 904.944275,538.382141 894.675842,541.914673 
	C871.956116,549.730530 848.965942,556.762878 826.054749,564.015625 
	C823.500061,564.824402 820.742920,564.993652 818.048767,565.464844 
	C839.615356,571.059082 860.823547,576.036377 881.691040,582.172546 
	C893.939880,585.774292 905.947815,590.575378 917.526672,595.987000 
	C934.933960,604.122742 952.213440,612.660828 968.923645,622.128418 
	C992.187622,635.309143 1013.298218,651.734192 1032.491943,670.257996 
	C1045.469727,682.782776 1057.467896,696.470215 1068.770142,710.548096 
	C1084.883057,730.618164 1098.322754,752.478455 1109.097412,775.981323 
	C1117.869019,795.114746 1125.352905,814.648438 1130.516113,835.051453 
	C1135.535889,854.888000 1139.532104,874.891663 1140.045410,895.446655 
	C1140.066772,896.305176 1140.668701,897.149170 1141.000000,898.000000 
	C1141.000000,910.354248 1141.000000,922.708435 1140.627930,935.747437 
	C1139.505981,944.117126 1139.286499,951.899780 1137.894653,959.466675 
	C1135.075439,974.792664 1132.355591,990.202332 1128.258545,1005.212830 
	C1121.868286,1028.624878 1111.699219,1050.568604 1099.750000,1071.696045 
	C1088.084473,1092.321899 1074.181885,1111.412231 1057.820801,1128.390991 
	C1044.629517,1142.080200 1030.487427,1155.113281 1015.393799,1166.638916 
	C999.292175,1178.934326 981.972229,1189.794800 964.440491,1200.005005 
	C950.907104,1207.886841 936.277344,1213.909058 922.025269,1220.521606 
	C917.082458,1222.814941 911.809875,1224.397705 906.036865,1226.547485 
	C906.036865,1224.268921 905.900818,1222.787231 906.059204,1221.337891 
	C907.002563,1212.705811 908.039429,1204.083862 908.994141,1195.452881 
	C909.715515,1188.931763 910.302673,1182.395264 911.053223,1175.877563 
	C912.325439,1164.830444 913.725342,1153.797729 914.982544,1142.748901 
	C915.775940,1135.775513 916.332092,1128.775024 917.129517,1121.802124 
	C918.358887,1111.053467 919.683167,1100.315430 921.006836,1089.577759 
	C921.967957,1081.781982 922.418213,1073.862305 924.166565,1066.243408 
	C925.638977,1059.827515 928.692993,1053.779907 930.979309,1047.544556 
	C943.524536,1013.331055 950.871094,977.935059 953.804626,941.704895 
	C954.931396,927.789124 954.502991,913.681091 953.843384,899.705017 
	C953.146545,884.941101 952.124695,870.102295 949.785400,855.530518 
	C947.286316,839.963196 943.896606,824.429443 939.437439,809.311096 
	C932.160156,784.638000 922.171936,761.036743 908.962463,738.786865 
	C896.611450,717.982971 882.401611,698.644592 865.605042,681.326904 
	C857.187439,672.648132 848.072083,664.473450 838.414185,657.212219 
	C825.314148,647.362793 811.967590,637.575989 797.697937,629.604065 
	C770.061707,614.164795 740.599548,603.176270 709.446167,596.678162 
	C685.584717,591.701111 661.601013,588.325623 637.245056,588.055359 
	C614.249817,587.800232 591.249573,588.006287 568.251526,587.988831 
	C566.533020,587.987488 564.814636,587.820312 562.236938,587.685181 
	C566.375061,577.603943 570.075134,568.281494 574.126831,559.114441 
	C574.626099,557.984985 576.983398,557.139099 578.511719,557.086121 
	C592.439636,556.603027 606.392761,556.658203 620.303162,555.904724 
	C638.552490,554.916138 656.825073,553.841370 674.983887,551.855042 
	C689.861267,550.227783 704.770508,548.006592 719.339417,544.637878 
	C745.007996,538.702698 769.811218,530.121521 792.712036,516.682251 
	C812.949402,504.805969 830.946411,490.487122 845.684692,471.957794 
	C859.777039,454.240540 870.446411,434.778931 877.897095,413.569092 
	C884.940552,393.518524 890.126282,372.953735 891.990967,351.687134 
	C893.381775,335.824463 895.275024,319.974792 895.855164,304.079590 
	C896.687012,281.285797 895.941467,258.453735 891.898560,235.940643 
	C889.087463,220.287491 886.141296,204.570038 881.777893,189.303604 
	C873.922302,161.818207 860.457886,136.972687 841.675293,115.418098 
	C828.355835,100.133003 812.896240,87.018219 795.581360,76.259254 
	C792.516907,74.355049 789.576660,73.982285 785.992493,75.404472 
	C764.122009,84.082695 746.836731,98.567070 733.328003,117.490417 
	C718.601746,138.119125 708.678406,161.332703 699.041748,184.608139 
	C690.974976,204.091721 683.339600,223.753448 675.422546,243.299561 
	C668.711853,259.867279 661.824158,276.363220 655.101746,292.926239 
	C648.394348,309.452332 641.824463,326.034180 635.140442,342.569855 
	C626.790710,363.226227 618.362610,383.850952 610.012695,404.507233 
	C603.679932,420.173309 597.427246,435.871704 591.119751,451.548004 
	C582.076172,474.024719 573.005005,496.490356 563.964539,518.968323 
	C554.148865,543.373596 544.397461,567.804810 534.538574,592.192627 
	C526.067322,613.148010 517.418518,634.031799 508.966339,654.994873 
	C497.131744,684.346863 485.491486,713.777405 473.604553,743.108093 
	C465.912994,762.086914 457.762207,780.879883 450.114960,799.876099 
	C438.163055,829.565308 426.577850,859.402283 414.617676,889.088196 
	C406.296295,909.742493 397.440033,930.181274 389.121063,950.836548 
	C377.161896,980.530090 365.590546,1010.379883 353.630829,1040.073120 
	C345.307404,1060.738403 336.509735,1081.212036 328.107910,1101.846191 
	C319.896027,1122.013794 311.908600,1142.273071 303.840973,1162.499268 
	C300.522034,1170.820068 297.250824,1179.160034 293.756714,1188.000244 
	C296.626221,1188.000244 298.616180,1188.000366 300.606110,1188.000366 
	C346.768860,1188.000244 392.931671,1188.049194 439.094238,1187.953735 
	C447.194397,1187.937012 455.297607,1187.394287 463.391907,1186.955811 
	C480.692963,1186.018921 498.008118,1185.239380 515.280701,1183.914917 
	C527.195129,1183.001099 539.177063,1181.970093 550.899414,1179.769531 
	C571.002258,1175.995972 590.947388,1171.364014 610.919250,1166.915527 
	C641.554626,1160.091797 670.763489,1149.077393 699.126526,1135.855347 
	C711.533386,1130.071777 723.651794,1123.572388 735.495361,1116.698853 
	C757.073486,1104.175659 777.297180,1089.608521 795.618774,1072.681030 
	C809.919922,1059.468018 823.275879,1045.293701 834.999634,1029.603027 
	C853.283508,1005.132751 868.225525,978.883911 877.942078,949.904724 
	C883.295349,933.938904 887.530212,917.598145 892.329834,901.219666 
	C900.012268,901.219666 908.297546,901.219666 916.793762,901.219666 
	C916.149902,908.416077 915.644409,915.390747 914.877197,922.336609 
	C913.678101,933.193237 912.271179,944.026672 911.011780,954.876831 
	C910.216064,961.731384 909.574585,968.603760 908.782288,975.458679 
	C907.558411,986.046814 906.184143,996.618103 905.023560,1007.212952 
	C903.896301,1017.503052 903.040771,1027.822876 901.914124,1038.113159 
	C900.701538,1049.187622 899.268921,1060.238037 898.016296,1071.308350 
	C897.223083,1078.319336 896.645630,1085.354614 895.860657,1092.366699 
	C894.623169,1103.420532 893.267029,1114.461182 892.010437,1125.513062 
	C891.218018,1132.482056 890.568420,1139.467651 889.760071,1146.434814 
	C888.550476,1156.859741 887.199707,1167.268188 886.020142,1177.696411 
	C885.207214,1184.882935 884.647461,1192.098145 883.858154,1199.287598 
	C882.623840,1210.530762 881.291077,1221.763062 880.000000,1233.000000 
M703.500000,1187.000244 
	C750.908203,1187.000244 798.316406,1187.000244 845.518372,1187.000244 
	C849.770569,1147.129150 853.946228,1107.975220 858.121887,1068.821289 
	C809.141724,1124.916748 750.974731,1166.066284 679.200195,1187.000244 
	C686.966797,1187.000244 694.733398,1187.000244 703.500000,1187.000244 
z"/>
</svg>