<?xml version="1.0" standalone="no"?>
<!DOCTYPE svg PUBLIC "-//W3C//DTD SVG 20010904//EN"
 "http://www.w3.org/TR/2001/REC-SVG-20010904/DTD/svg10.dtd">
<svg version="1.0" xmlns="http://www.w3.org/2000/svg"
 width="512.000000pt" height="512.000000pt" viewBox="0 0 512.000000 512.000000"
 preserveAspectRatio="xMidYMid meet">

<g transform="translate(0.000000,512.000000) scale(0.100000,-0.100000)"
fill="#bf9563" stroke="none">
<path d="M694 5101 c-31 -14 -47 -30 -63 -63 -20 -41 -21 -59 -21 -281 l0
-237 -242 0 c-227 0 -244 -1 -286 -21 -33 -16 -49 -32 -63 -63 -26 -58 -24
-95 10 -147 38 -58 926 -942 968 -963 27 -14 75 -16 315 -16 l283 0 420 -421
c231 -232 440 -434 464 -450 27 -18 58 -29 79 -29 76 0 152 76 152 152 0 21
-11 52 -29 79 -16 24 -218 233 -450 464 l-421 420 0 283 c0 244 -2 287 -17
315 -20 40 -913 944 -962 974 -44 28 -83 29 -137 4z"/>
<path d="M2300 5104 c-222 -26 -460 -88 -671 -173 -67 -28 -126 -54 -130 -58
-5 -5 94 -111 219 -235 l227 -227 108 29 c186 50 302 64 512 64 248 0 448 -34
660 -113 602 -222 1064 -731 1220 -1341 47 -185 59 -283 59 -490 0 -207 -12
-305 -59 -490 -172 -673 -722 -1223 -1395 -1395 -185 -47 -283 -59 -490 -59
-207 0 -305 12 -490 59 -673 172 -1223 722 -1395 1395 -47 183 -59 283 -59
485 0 210 14 326 64 512 l29 108 -227 227 c-124 125 -230 224 -235 219 -4 -4
-30 -63 -58 -130 -151 -373 -213 -773 -179 -1146 68 -737 433 -1390 1025
-1835 378 -284 826 -455 1310 -500 446 -41 949 55 1355 260 273 138 559 356
755 576 384 432 602 931 655 1499 41 446 -55 949 -260 1355 -246 488 -662 904
-1150 1150 -420 212 -949 308 -1400 254z"/>
<path d="M2435 3903 c-65 -8 -193 -35 -257 -55 l-68 -20 0 -92 0 -91 169 -169
170 -170 123 -2 c126 -2 178 -12 278 -54 214 -91 383 -291 441 -520 8 -31 14
-105 14 -170 0 -65 -6 -139 -14 -170 -69 -274 -287 -492 -561 -561 -71 -18
-269 -18 -340 0 -229 58 -429 227 -520 441 -42 100 -52 152 -54 278 l-2 123
-170 170 -169 169 -91 0 -92 0 -20 -67 c-95 -315 -77 -618 54 -923 129 -300
394 -565 694 -694 218 -94 440 -130 663 -108 323 32 600 163 828 391 228 228
359 505 391 828 63 635 -350 1237 -971 1419 -145 43 -366 64 -496 47z"/>
</g>
</svg>
